<?xml version="1.0" encoding="UTF-8" standalone="no"?>
<!DOCTYPE svg PUBLIC "-//W3C//DTD SVG 1.1//EN"
 "http://www.w3.org/Graphics/SVG/1.1/DTD/svg11.dtd">
<!-- Generated by graphviz version 2.38.0 (20140413.2041)
 -->
<!-- Title: %3 Pages: 1 -->
<svg width="3960pt" height="165pt"
 viewBox="0.00 0.00 3960.00 164.76" xmlns="http://www.w3.org/2000/svg" xmlns:xlink="http://www.w3.org/1999/xlink">
<g id="graph0" class="graph" transform="scale(1 1) rotate(0) translate(4 160.764)">
<title>%3</title>
<polygon fill="white" stroke="none" points="-4,4 -4,-160.764 3956,-160.764 3956,4 -4,4"/>
<!-- 1 -->
<g id="node1" class="node"><title>1</title>
<polygon fill="none" stroke="black" points="3824,-121.764 3746,-121.764 3746,-69.7637 3824,-69.7637 3824,-121.764"/>
<polygon fill="none" stroke="black" points="3755,-95.7637 3755,-116.764 3771,-116.764 3771,-95.7637 3755,-95.7637"/>
<text text-anchor="start" x="3758" y="-103.564" font-family="Times New Roman,serif" font-weight="bold" font-size="14.00">. </text>
<polygon fill="none" stroke="black" points="3771,-95.7637 3771,-116.764 3815,-116.764 3815,-95.7637 3771,-95.7637"/>
<text text-anchor="start" x="3774" y="-103.564" font-family="Times New Roman,serif" font-weight="bold" font-size="14.00">Sigla</text>
<polygon fill="none" stroke="black" points="3755,-74.7637 3755,-95.7637 3771,-95.7637 3771,-74.7637 3755,-74.7637"/>
<text text-anchor="start" x="3758" y="-81.5637" font-family="Bukyvede" font-size="14.00">. </text>
<polygon fill="none" stroke="black" points="3771,-74.7637 3771,-95.7637 3815,-95.7637 3815,-74.7637 3771,-74.7637"/>
<text text-anchor="start" x="3774" y="-81.5637" font-family="Times New Roman,serif" font-size="14.00">S2, P4</text>
<polygon fill="none" stroke="black" points="3754,-73.7637 3754,-117.764 3816,-117.764 3816,-73.7637 3754,-73.7637"/>
</g>
<!-- 3 -->
<g id="node3" class="node"><title>3</title>
<polygon fill="none" stroke="black" points="3952,-113.764 3898,-113.764 3898,-77.7637 3952,-77.7637 3952,-113.764"/>
<text text-anchor="middle" x="3925" y="-92.0637" font-family="Times New Roman,serif" font-size="14.00">3</text>
</g>
<!-- 1&#45;&gt;3 -->
<g id="edge1" class="edge"><title>1&#45;&gt;3</title>
<path fill="none" stroke="black" d="M3824.07,-95.7637C3843.96,-95.7637 3868.16,-95.7637 3887.76,-95.7637"/>
<polygon fill="black" stroke="black" points="3887.84,-99.2638 3897.84,-95.7637 3887.84,-92.2638 3887.84,-99.2638"/>
<text text-anchor="middle" x="3861" y="-99.5637" font-family="Times New Roman,serif" font-size="14.00">P4, S2</text>
</g>
<!-- 2 -->
<g id="node2" class="node"><title>2</title>
<polygon fill="none" stroke="black" points="3694,-156.764 106,-156.764 106,-104.764 3694,-104.764 3694,-156.764"/>
<polygon fill="none" stroke="black" points="115,-130.764 115,-151.764 3648,-151.764 3648,-130.764 115,-130.764"/>
<text text-anchor="start" x="118" y="-138.564" font-family="Times New Roman,serif" font-weight="bold" font-size="14.00">[1ra] Al nome di Ih(es)u Chr(ist)o c(r)ucifixo (et) | di Maria dolce. Al n(ost)ro signo|re lo papa Gregorio Undeci(m)o. | Sanc|tissi(m)o || et re|vere(n)|dissi(m)o | padr|e mi||o in Ch(rist)o | dolce | Ih(es)u. | Io K(aterina) | indegna (et) miserabile v(ost)ra figli|| [1rb] uola, s(er)va (et) schiava de’ s(er)vi di | Ih(es)u Chr(ist)o, scrivo a voi nel p(re)tioso | sangue suo. Con desederio di ve|dervi pastore buono. Considera(n)|do me, babbo mio dolce, che il lu||po ne porta le pecorelle v(ost)re (et) no(n) | si truova chi le remedisca</text>
<polygon fill="none" stroke="black" points="3648,-130.764 3648,-151.764 3685,-151.764 3685,-130.764 3648,-130.764"/>
<text text-anchor="start" x="3651" y="-138.564" font-family="Times New Roman,serif" font-weight="bold" font-size="14.00">Sigla</text>
<polygon fill="none" stroke="black" points="115,-109.764 115,-130.764 3648,-130.764 3648,-109.764 115,-109.764"/>
<text text-anchor="start" x="118" y="-116.564" font-family="Bukyvede" font-size="14.00">[1ra] Al nome di Ih(es)u Chr(ist)o c(r)ucifixo (et) | di Maria dolce. Al n(ost)ro signo|re lo papa Gregorio Undeci(m)o. | Sanc|tissi(m)o || et re|vere(n)|dissi(m)o | padr|e mi||o in Ch(rist)o | dolce | Ih(es)u. | Io K(aterina) | indegna (et) miserabile v(ost)ra figli|| [1rb] uola, s(er)va (et) schiava de’ s(er)vi di | Ih(es)u Chr(ist)o, scrivo a voi nel p(re)tioso | sangue suo. Con desederio di ve|dervi pastore buono. Considera(n)|do me, babbo mio dolce, che il lu||po ne porta le pecorelle v(ost)re (et) no(n) | si truova chi le remedisca</text>
<polygon fill="none" stroke="black" points="3648,-109.764 3648,-130.764 3685,-130.764 3685,-109.764 3648,-109.764"/>
<text text-anchor="start" x="3651" y="-116.564" font-family="Times New Roman,serif" font-size="14.00">S2</text>
<polygon fill="none" stroke="black" points="114,-108.764 114,-152.764 3686,-152.764 3686,-108.764 114,-108.764"/>
</g>
<!-- 2&#45;&gt;1 -->
<g id="edge2" class="edge"><title>2&#45;&gt;1</title>
<path fill="none" stroke="black" d="M3300,-104.76C3497.03,-101.098 3658.75,-98.0918 3735.63,-96.6628"/>
<polygon fill="black" stroke="black" points="3735.97,-100.157 3745.91,-96.4717 3735.84,-93.1583 3735.97,-100.157"/>
<text text-anchor="middle" x="3720" y="-100.564" font-family="Times New Roman,serif" font-size="14.00">S2</text>
</g>
<!-- 4 -->
<g id="node4" class="node"><title>4</title>
<polygon fill="none" stroke="black" points="3665.5,-86.7637 134.5,-86.7637 134.5,-34.7637 3665.5,-34.7637 3665.5,-86.7637"/>
<polygon fill="none" stroke="black" points="144,-60.7637 144,-81.7637 3620,-81.7637 3620,-60.7637 144,-60.7637"/>
<text text-anchor="start" x="147" y="-68.5637" font-family="Times New Roman,serif" font-weight="bold" font-size="14.00">[1rb] Al s(an)c(t)o padre papa Gregorio xjo. | Al nome di Yh(es)u Chr(ist)o crocifixo (et) di | Maria dolce. | Sanct|issimo (et) revere(n)dissimo | padre mio i(n) Chr(ist)o dolce || Yh(es)u. Io Katerina, i(n)de|gna (et) mis(er)abile v(ost)ra | figliola, s(er)va (et) schia|va de’ servi di Yh(es)u &#160;Chr(ist)o, scrivo a voi | nel pretioso sangue suo. Co(n) deside(r)io || de vedervi pastore buono, co(n)sidera(n)|do me, babbo mio dolce, che el lupo | i(n)fernale ne po(r)ta le pecorelle v(ost)re et | no(n) si trova &#160;chi le redemischa</text>
<polygon fill="none" stroke="black" points="3620,-60.7637 3620,-81.7637 3657,-81.7637 3657,-60.7637 3620,-60.7637"/>
<text text-anchor="start" x="3623" y="-68.5637" font-family="Times New Roman,serif" font-weight="bold" font-size="14.00">Sigla</text>
<polygon fill="none" stroke="black" points="144,-39.7637 144,-60.7637 3620,-60.7637 3620,-39.7637 144,-39.7637"/>
<text text-anchor="start" x="147" y="-46.5637" font-family="Bukyvede" font-size="14.00">[1rb] Al s(an)c(t)o padre papa Gregorio xjo. | Al nome di Yh(es)u Chr(ist)o crocifixo (et) di | Maria dolce. | Sanct|issimo (et) revere(n)dissimo | padre mio i(n) Chr(ist)o dolce || Yh(es)u. Io Katerina, i(n)de|gna (et) mis(er)abile v(ost)ra | figliola, s(er)va (et) schia|va de’ servi di Yh(es)u &#160;Chr(ist)o, scrivo a voi | nel pretioso sangue suo. Co(n) deside(r)io || de vedervi pastore buono, co(n)sidera(n)|do me, babbo mio dolce, che el lupo | i(n)fernale ne po(r)ta le pecorelle v(ost)re et | no(n) si trova &#160;chi le redemischa</text>
<polygon fill="none" stroke="black" points="3620,-39.7637 3620,-60.7637 3657,-60.7637 3657,-39.7637 3620,-39.7637"/>
<text text-anchor="start" x="3623" y="-46.5637" font-family="Times New Roman,serif" font-size="14.00">P4</text>
<polygon fill="none" stroke="black" points="142.5,-38.7637 142.5,-82.7637 3657.5,-82.7637 3657.5,-38.7637 142.5,-38.7637"/>
</g>
<!-- 4&#45;&gt;1 -->
<g id="edge3" class="edge"><title>4&#45;&gt;1</title>
<path fill="none" stroke="black" d="M2222.36,-34.7397C2589.22,-11.7244 3206.03,6.55247 3728,-77.7637 3730.65,-78.1916 3733.35,-78.7215 3736.05,-79.3277"/>
<polygon fill="black" stroke="black" points="3735.26,-82.7383 3745.81,-81.8119 3736.99,-75.9544 3735.26,-82.7383"/>
<text text-anchor="middle" x="3720" y="-81.5637" font-family="Times New Roman,serif" font-size="14.00">P4</text>
</g>
<!-- 5 -->
<g id="node5" class="node"><title>5</title>
<polygon fill="none" stroke="black" points="54,-117.764 0,-117.764 0,-81.7637 54,-81.7637 54,-117.764"/>
<text text-anchor="middle" x="27" y="-96.0637" font-family="Times New Roman,serif" font-size="14.00">5</text>
</g>
<!-- 5&#45;&gt;2 -->
<g id="edge4" class="edge"><title>5&#45;&gt;2</title>
<path fill="none" stroke="black" d="M54.0919,-100.196C97.7802,-100.92 193.484,-102.506 319.467,-104.593"/>
<polygon fill="black" stroke="black" points="319.712,-108.097 329.769,-104.764 319.828,-101.098 319.712,-108.097"/>
<text text-anchor="middle" x="80" y="-103.564" font-family="Times New Roman,serif" font-size="14.00">S2</text>
</g>
<!-- 5&#45;&gt;4 -->
<g id="edge5" class="edge"><title>5&#45;&gt;4</title>
<path fill="none" stroke="black" d="M54.4343,-86.3561C60.0956,-84.0558 66.1398,-82.0083 72,-80.7637 631.341,38.04 1308.87,-0.554829 1660.78,-33.7872"/>
<polygon fill="black" stroke="black" points="1660.55,-37.2812 1670.84,-34.744 1661.21,-30.3127 1660.55,-37.2812"/>
<text text-anchor="middle" x="80" y="-84.5637" font-family="Times New Roman,serif" font-size="14.00">P4</text>
</g>
</g>
</svg>
